<svg xmlns="http://www.w3.org/2000/svg" xmlns:xlink="http://www.w3.org/1999/xlink" preserveAspectRatio="xMidYMid" width="29" height="30" viewBox="0 0 29 30">
  <defs>
    <style>
      .cls-1 {
        fill: #000;
        filter: url(#color-overlay-1);
        fill-rule: evenodd;
      }
    </style>

    <filter id="color-overlay-1" filterUnits="userSpaceOnUse">
      <feFlood flood-color="#f4f4f4"/>
      <feComposite operator="in" in2="SourceGraphic"/>
      <feBlend in2="SourceGraphic" result="solidFill"/>
    </filter>
  </defs>
  <path d="M13.348,13.163 C13.647,12.778 14.010,12.409 14.438,12.055 C14.866,11.701 15.291,11.310 15.712,10.884 C16.134,10.458 16.494,9.899 16.794,9.208 C17.093,8.518 17.243,7.740 17.243,6.875 C17.243,5.794 17.011,4.834 16.546,3.993 C16.082,3.152 15.397,2.353 14.493,1.597 L16.895,1.597 L19.424,0.011 L11.762,0.011 C10.393,0.011 9.064,0.204 7.775,0.588 C6.485,0.972 5.370,1.561 4.429,2.353 C3.659,3.002 3.055,3.789 2.615,4.713 C2.175,5.638 1.955,6.593 1.955,7.578 C1.955,9.355 2.575,10.824 3.815,11.983 C5.056,13.142 6.580,13.721 8.389,13.721 C8.658,13.721 9.073,13.697 9.635,13.649 C9.379,14.238 9.250,14.748 9.250,15.180 C9.250,15.673 9.345,16.111 9.535,16.495 C9.724,16.880 10.014,17.324 10.405,17.829 C7.069,18.045 4.600,18.646 3.000,19.630 C2.095,20.183 1.371,20.873 0.827,21.702 C0.283,22.531 0.012,23.431 0.012,24.404 C0.012,25.257 0.238,26.044 0.690,26.764 C1.386,27.917 2.434,28.743 3.834,29.242 C5.233,29.740 6.739,29.989 8.352,29.989 C10.295,29.989 12.116,29.644 13.815,28.953 C15.513,28.262 16.803,27.185 17.683,25.719 C18.269,24.723 18.563,23.684 18.563,22.603 C18.563,21.666 18.367,20.813 17.976,20.045 C17.585,19.276 17.115,18.651 16.565,18.171 C16.015,17.691 15.462,17.249 14.906,16.847 C14.349,16.444 13.876,16.036 13.485,15.622 C13.094,15.207 12.898,14.784 12.898,14.352 C12.898,13.944 13.048,13.547 13.348,13.163 ZM8.453,12.154 C7.909,11.841 7.451,11.439 7.078,10.947 C6.705,10.454 6.388,9.899 6.125,9.280 C5.862,8.662 5.670,8.043 5.548,7.425 C5.425,6.806 5.364,6.221 5.364,5.668 C5.364,4.455 5.651,3.494 6.226,2.786 C6.531,2.389 6.932,2.074 7.427,1.840 C7.921,1.606 8.426,1.488 8.939,1.488 C9.721,1.488 10.436,1.735 11.084,2.227 C11.731,2.720 12.248,3.341 12.633,4.092 C13.018,4.842 13.314,5.620 13.522,6.425 C13.729,7.230 13.833,7.980 13.833,8.677 C13.833,9.902 13.509,10.857 12.862,11.541 C12.544,11.866 12.141,12.127 11.652,12.325 C11.163,12.523 10.686,12.622 10.222,12.622 C9.586,12.622 8.997,12.466 8.453,12.154 ZM7.921,28.088 C7.158,27.914 6.430,27.650 5.740,27.296 C5.049,26.942 4.490,26.443 4.063,25.801 C3.635,25.158 3.421,24.416 3.421,23.576 C3.421,22.867 3.586,22.233 3.916,21.675 C4.246,21.116 4.665,20.669 5.172,20.333 C5.679,19.997 6.272,19.720 6.950,19.504 C7.628,19.288 8.285,19.138 8.921,19.054 C9.556,18.970 10.197,18.928 10.845,18.928 C11.236,18.928 11.530,18.940 11.725,18.963 C11.762,18.988 11.985,19.144 12.394,19.432 C12.804,19.720 13.057,19.900 13.155,19.972 C13.253,20.045 13.476,20.219 13.824,20.495 C14.172,20.771 14.408,20.979 14.530,21.116 C14.652,21.255 14.832,21.465 15.071,21.747 C15.309,22.029 15.474,22.278 15.566,22.495 C15.657,22.711 15.746,22.963 15.831,23.251 C15.917,23.539 15.960,23.834 15.960,24.134 C15.960,24.879 15.792,25.533 15.456,26.098 C15.119,26.663 14.673,27.101 14.117,27.413 C13.561,27.725 12.956,27.959 12.303,28.115 C11.649,28.271 10.967,28.350 10.259,28.350 C9.464,28.350 8.685,28.262 7.921,28.088 ZM25.107,8.659 L23.182,8.659 L23.182,12.568 L19.296,12.568 L19.296,14.514 L23.182,14.514 L23.182,18.459 L25.107,18.459 L25.107,14.514 L29.012,14.514 L29.012,12.568 L25.107,12.568 L25.107,8.659 Z" class="cls-1"/>
</svg>
