<svg xmlns="http://www.w3.org/2000/svg" xmlns:xlink="http://www.w3.org/1999/xlink" preserveAspectRatio="xMidYMid" width="20" height="30" viewBox="0 0 20 30">
  <defs>
    <style>
      .cls-1 {
        fill: #000;
        filter: url(#color-overlay-1);
        fill-rule: evenodd;
      }
    </style>

    <filter id="color-overlay-1" filterUnits="userSpaceOnUse">
      <feFlood flood-color="#fff"/>
      <feComposite operator="in" in2="SourceGraphic"/>
      <feBlend in2="SourceGraphic" result="solidFill"/>
    </filter>
  </defs>
  <path d="M9.996,14.997 C8.616,14.997 7.439,14.509 6.462,13.533 C5.486,12.557 4.998,11.379 4.998,9.999 C4.998,8.619 5.486,7.441 6.462,6.465 C7.439,5.489 8.616,5.001 9.996,5.001 C11.376,5.001 12.554,5.489 13.530,6.465 C14.506,7.441 14.995,8.619 14.995,9.999 C14.995,11.379 14.506,12.557 13.530,13.533 C12.554,14.509 11.376,14.997 9.996,14.997 ZM17.064,2.931 C15.112,0.979 12.756,0.003 9.996,0.003 C7.237,0.003 4.881,0.979 2.929,2.931 C0.976,4.883 -0.000,7.240 -0.000,9.999 C-0.000,11.418 0.215,12.583 0.644,13.494 L7.771,28.606 C7.966,29.035 8.268,29.374 8.678,29.621 C9.088,29.868 9.528,29.992 9.996,29.992 C10.465,29.992 10.904,29.868 11.314,29.621 C11.724,29.374 12.033,29.035 12.242,28.606 L19.348,13.494 C19.778,12.583 19.993,11.418 19.993,9.999 C19.993,7.240 19.017,4.883 17.064,2.931 Z" class="cls-1"/>
</svg>
