<svg xmlns="http://www.w3.org/2000/svg" xmlns:xlink="http://www.w3.org/1999/xlink" preserveAspectRatio="xMidYMid" width="30" height="30" viewBox="0 0 30 30">
  <defs>
    <style>
      .cls-1 {
        fill: #000;
        filter: url(#color-overlay-1);
        fill-rule: evenodd;
      }
    </style>

    <filter id="color-overlay-1" filterUnits="userSpaceOnUse">
      <feFlood flood-color="#fff"/>
      <feComposite operator="in" in2="SourceGraphic"/>
      <feBlend in2="SourceGraphic" result="solidFill"/>
    </filter>
  </defs>
  <path d="M29.931,23.247 C29.846,22.991 29.306,22.615 28.312,22.118 C28.042,21.961 27.659,21.749 27.162,21.478 C26.664,21.209 26.214,20.960 25.809,20.733 C25.404,20.506 25.024,20.286 24.669,20.073 C24.612,20.030 24.435,19.906 24.136,19.700 C23.838,19.494 23.586,19.341 23.380,19.242 C23.174,19.142 22.972,19.093 22.773,19.093 C22.489,19.093 22.134,19.295 21.708,19.700 C21.282,20.104 20.891,20.545 20.536,21.020 C20.181,21.496 19.805,21.937 19.407,22.341 C19.009,22.746 18.683,22.948 18.427,22.948 C18.299,22.948 18.140,22.913 17.948,22.842 C17.756,22.771 17.610,22.711 17.511,22.661 C17.412,22.611 17.241,22.512 17.000,22.363 C16.758,22.213 16.623,22.132 16.595,22.118 C14.649,21.038 12.981,19.803 11.589,18.411 C10.197,17.019 8.961,15.350 7.882,13.405 C7.868,13.376 7.786,13.241 7.637,13.000 C7.488,12.759 7.388,12.588 7.339,12.488 C7.289,12.389 7.229,12.243 7.158,12.052 C7.086,11.860 7.051,11.700 7.051,11.572 C7.051,11.317 7.254,10.990 7.658,10.593 C8.063,10.195 8.503,9.819 8.979,9.463 C9.455,9.109 9.895,8.718 10.300,8.292 C10.705,7.866 10.907,7.511 10.907,7.227 C10.907,7.028 10.857,6.825 10.758,6.619 C10.659,6.414 10.506,6.161 10.300,5.863 C10.094,5.565 9.970,5.387 9.927,5.330 C9.714,4.976 9.494,4.596 9.267,4.191 C9.039,3.786 8.791,3.336 8.521,2.838 C8.251,2.341 8.038,1.958 7.882,1.688 C7.385,0.694 7.009,0.154 6.753,0.069 C6.653,0.026 6.504,0.005 6.306,0.005 C5.922,0.005 5.421,0.076 4.804,0.218 C4.186,0.360 3.699,0.509 3.344,0.665 C2.634,0.964 1.881,1.830 1.086,3.264 C0.362,4.599 -0.000,5.920 -0.000,7.227 C-0.000,7.610 0.024,7.983 0.074,8.345 C0.124,8.707 0.213,9.116 0.341,9.570 C0.468,10.025 0.571,10.362 0.650,10.582 C0.727,10.802 0.873,11.196 1.086,11.764 C1.299,12.332 1.427,12.680 1.470,12.808 C1.967,14.200 2.556,15.443 3.238,16.536 C4.360,18.354 5.890,20.232 7.829,22.171 C9.767,24.109 11.645,25.640 13.463,26.762 C14.557,27.443 15.800,28.033 17.192,28.530 C17.319,28.572 17.667,28.700 18.235,28.913 C18.803,29.126 19.197,29.272 19.418,29.350 C19.638,29.428 19.975,29.531 20.430,29.659 C20.884,29.787 21.292,29.876 21.655,29.925 C22.017,29.975 22.390,30.000 22.773,30.000 C24.080,30.000 25.400,29.638 26.736,28.913 C28.170,28.118 29.036,27.365 29.334,26.655 C29.491,26.300 29.640,25.814 29.782,25.196 C29.924,24.578 29.995,24.077 29.995,23.694 C29.995,23.495 29.974,23.346 29.931,23.247 L29.931,23.247 Z" class="cls-1"/>
</svg>
