<svg xmlns="http://www.w3.org/2000/svg" xmlns:xlink="http://www.w3.org/1999/xlink" preserveAspectRatio="xMidYMid" width="23" height="30" viewBox="0 0 23 30">
  <defs>
    <style>
      .cls-1 {
        fill: #000;
        filter: url(#color-overlay-1);
        fill-rule: evenodd;
      }
    </style>

    <filter id="color-overlay-1" filterUnits="userSpaceOnUse">
      <feFlood flood-color="#f4f4f4"/>
      <feComposite operator="in" in2="SourceGraphic"/>
      <feBlend in2="SourceGraphic" result="solidFill"/>
    </filter>
  </defs>
  <path d="M0.198,12.685 C0.329,13.340 0.524,13.988 0.782,14.631 C1.039,15.274 1.404,15.841 1.878,16.333 C2.351,16.826 2.893,17.162 3.504,17.342 C3.684,17.378 3.785,17.396 3.809,17.396 C4.073,17.396 4.295,17.126 4.474,16.586 C4.654,16.045 4.744,15.607 4.744,15.270 C4.744,15.162 4.669,14.979 4.519,14.721 C4.369,14.463 4.208,14.189 4.034,13.901 C3.860,13.613 3.698,13.223 3.549,12.730 C3.399,12.238 3.324,11.728 3.324,11.199 C3.324,8.809 4.127,6.836 5.732,5.281 C7.337,3.726 9.338,2.948 11.734,2.948 C13.842,2.948 15.552,3.527 16.864,4.686 C18.176,5.845 18.832,7.464 18.832,9.541 C18.832,10.106 18.793,10.703 18.715,11.334 C18.637,11.964 18.517,12.631 18.356,13.334 C18.194,14.036 17.966,14.700 17.673,15.324 C17.379,15.949 17.044,16.520 16.666,17.036 C16.289,17.553 15.819,17.961 15.256,18.261 C14.693,18.561 14.082,18.711 13.423,18.711 C12.656,18.711 12.003,18.462 11.464,17.964 C10.925,17.466 10.656,16.838 10.656,16.081 C10.656,15.337 10.919,14.214 11.446,12.712 C11.973,11.211 12.237,10.064 12.237,9.271 C12.237,8.527 12.033,7.911 11.626,7.425 C11.219,6.938 10.650,6.695 9.919,6.695 C8.960,6.695 8.170,7.134 7.547,8.010 C6.924,8.887 6.613,9.824 6.613,10.821 C6.613,12.070 6.804,13.085 7.188,13.865 C7.104,14.226 6.792,15.445 6.253,17.522 C5.714,19.600 5.316,21.327 5.058,22.702 C4.801,24.077 4.672,25.317 4.672,26.422 C4.672,26.794 4.762,27.923 4.942,29.809 L5.103,29.989 L5.355,29.899 C5.798,29.298 6.169,28.779 6.469,28.341 C6.768,27.902 7.044,27.437 7.295,26.945 C7.547,26.452 7.739,26.077 7.871,25.818 C8.002,25.560 8.158,25.134 8.338,24.539 C8.517,23.945 8.640,23.519 8.706,23.260 C8.772,23.002 8.913,22.432 9.128,21.549 C9.344,20.666 9.512,19.991 9.632,19.522 C9.979,20.195 10.554,20.723 11.357,21.108 C12.159,21.492 12.968,21.684 13.782,21.684 C15.016,21.684 16.148,21.453 17.179,20.990 C18.209,20.528 19.077,19.909 19.784,19.135 C20.491,18.360 21.090,17.462 21.581,16.441 C22.072,15.421 22.432,14.358 22.659,13.253 C22.887,12.148 23.001,11.019 23.001,9.866 C23.001,7.944 22.491,6.221 21.473,4.695 C20.455,3.170 19.131,2.008 17.502,1.209 C15.873,0.411 14.112,0.011 12.219,0.011 C10.985,0.011 9.775,0.167 8.589,0.480 C7.403,0.792 6.295,1.261 5.265,1.885 C4.235,2.510 3.324,3.248 2.534,4.101 C1.743,4.954 1.123,5.954 0.674,7.100 C0.225,8.248 -0.000,9.469 -0.000,10.767 C-0.000,11.391 0.066,12.031 0.198,12.685 Z" class="cls-1"/>
</svg>
