<svg xmlns="http://www.w3.org/2000/svg" xmlns:xlink="http://www.w3.org/1999/xlink" preserveAspectRatio="xMidYMid" width="30" height="30" viewBox="0 0 30 30">
  <defs>
    <style>
      .cls-1 {
        fill: #000;
        filter: url(#color-overlay-1);
        fill-rule: evenodd;
      }
    </style>

    <filter id="color-overlay-1" filterUnits="userSpaceOnUse">
      <feFlood flood-color="#fff"/>
      <feComposite operator="in" in2="SourceGraphic"/>
      <feBlend in2="SourceGraphic" result="solidFill"/>
    </filter>
  </defs>
  <path d="M19.485,19.176 L12.457,15.661 C12.482,15.375 12.496,15.153 12.496,14.997 C12.496,14.841 12.482,14.620 12.457,14.333 L19.485,10.819 C20.683,11.939 22.102,12.498 23.742,12.498 C25.473,12.498 26.947,11.890 28.164,10.673 C29.381,9.456 29.990,7.982 29.990,6.250 C29.990,4.519 29.381,3.045 28.164,1.828 C26.947,0.611 25.473,0.003 23.742,0.003 C22.010,0.003 20.536,0.611 19.319,1.828 C18.102,3.045 17.494,4.519 17.494,6.250 C17.494,6.406 17.507,6.628 17.533,6.914 L10.504,10.428 C9.306,9.309 7.888,8.749 6.248,8.749 C4.516,8.749 3.042,9.358 1.825,10.575 C0.608,11.792 -0.000,13.266 -0.000,14.997 C-0.000,16.728 0.608,18.203 1.825,19.420 C3.042,20.637 4.516,21.245 6.248,21.245 C7.888,21.245 9.306,20.686 10.504,19.566 L17.533,23.080 C17.507,23.367 17.494,23.588 17.494,23.744 C17.494,25.475 18.102,26.950 19.319,28.167 C20.536,29.383 22.010,29.992 23.742,29.992 C25.473,29.992 26.947,29.383 28.164,28.167 C29.381,26.950 29.990,25.475 29.990,23.744 C29.990,22.013 29.381,20.539 28.164,19.322 C26.947,18.105 25.473,17.496 23.742,17.496 C22.102,17.496 20.683,18.056 19.485,19.176 L19.485,19.176 Z" class="cls-1"/>
</svg>
