<svg xmlns="http://www.w3.org/2000/svg" xmlns:xlink="http://www.w3.org/1999/xlink" preserveAspectRatio="xMidYMid" width="33.001" height="33.407" viewBox="0 0 33.001 33.407">
  <defs>
    <style>
      .cls-1 {
        fill: #333;
        fill-rule: evenodd;
      }
    </style>
  </defs>
  <path d="M16.533,33.418 C7.560,33.590 -0.121,25.898 -0.010,16.613 C0.101,7.438 7.399,-0.061 16.458,-0.004 C25.771,0.054 32.963,7.361 33.003,16.822 C33.041,26.128 25.360,33.525 16.533,33.418 ZM16.537,1.239 C8.098,1.314 1.210,8.131 1.192,16.611 C1.173,25.187 8.015,32.199 16.424,32.221 C24.848,32.243 31.731,25.272 31.831,16.758 C31.927,8.562 24.928,1.165 16.537,1.239 ZM23.622,23.813 C23.230,26.738 21.384,28.755 18.605,29.348 C13.795,30.375 9.466,27.212 9.229,22.187 C9.094,19.325 9.203,16.451 9.203,13.583 C9.203,12.066 9.203,12.068 10.684,12.026 C10.871,12.020 11.059,11.994 11.353,11.968 C11.353,11.046 11.349,10.165 11.354,9.285 C11.372,6.325 13.548,4.165 16.517,4.155 C19.479,4.145 21.694,6.300 21.715,9.235 C21.729,11.239 21.717,13.244 21.717,15.314 C23.830,15.432 23.852,15.432 23.824,17.511 C23.797,19.614 23.899,21.741 23.622,23.813 ZM10.407,15.268 C10.407,15.432 10.404,15.597 10.407,15.762 C10.454,18.166 10.322,20.590 10.592,22.968 C10.968,26.279 14.160,28.642 17.364,28.155 C17.364,25.165 17.492,22.228 17.328,19.307 C17.165,16.410 15.292,14.213 12.784,13.513 C10.552,12.891 10.405,12.998 10.407,15.268 ZM17.717,5.557 C15.205,4.911 12.774,6.429 12.565,8.942 C12.478,9.987 12.551,11.046 12.551,12.108 C12.753,12.188 12.899,12.250 13.049,12.303 C16.792,13.635 18.557,16.163 18.558,20.197 C18.558,21.973 18.558,23.750 18.558,25.697 C19.907,24.860 20.502,23.773 20.510,22.406 C20.536,18.018 20.533,13.631 20.514,9.243 C20.508,7.709 19.571,6.034 17.717,5.557 ZM22.146,16.474 C22.002,16.742 21.740,17.006 21.733,17.277 C21.693,18.922 21.694,20.568 21.714,22.213 C21.738,24.276 20.861,25.792 19.131,26.863 C18.821,27.054 18.657,27.487 18.425,27.809 C18.515,27.877 18.606,27.945 18.696,28.014 C20.510,27.411 21.935,26.184 22.221,24.311 C22.605,21.805 22.528,19.227 22.648,16.681 C22.481,16.612 22.313,16.543 22.146,16.474 ZM17.319,8.297 C17.630,8.087 17.936,7.724 18.254,7.714 C18.543,7.705 18.844,8.079 19.140,8.284 C18.859,8.520 18.578,8.757 18.162,9.107 C17.799,8.758 17.559,8.527 17.319,8.297 ZM19.139,10.873 C18.910,11.104 18.682,11.335 18.351,11.669 C17.893,11.328 17.594,11.107 17.295,10.885 C17.641,10.671 17.973,10.328 18.338,10.286 C18.580,10.258 18.870,10.662 19.139,10.873 ZM19.139,13.404 C18.860,13.609 18.573,13.987 18.305,13.974 C17.972,13.958 17.654,13.617 17.330,13.416 C17.610,13.165 17.889,12.914 18.314,12.532 C18.673,12.911 18.906,13.157 19.139,13.404 ZM13.936,11.439 C14.290,11.241 14.635,10.916 15.001,10.889 C15.259,10.870 15.546,11.256 15.820,11.462 C15.545,11.727 15.270,11.992 14.842,12.404 C14.428,11.964 14.182,11.701 13.936,11.439 ZM13.928,8.899 C14.199,8.642 14.470,8.385 14.874,8.003 C15.276,8.372 15.546,8.621 15.817,8.870 C15.527,9.105 15.227,9.536 14.948,9.523 C14.599,9.507 14.267,9.124 13.928,8.899 Z" class="cls-1"/>
</svg>
