<svg xmlns="http://www.w3.org/2000/svg" xmlns:xlink="http://www.w3.org/1999/xlink" preserveAspectRatio="xMidYMid" width="32.968" height="33.375" viewBox="0 0 32.968 33.375">
  <defs>
    <style>
      .cls-1 {
        fill: #333;
        fill-rule: evenodd;
      }
    </style>
  </defs>
  <path d="M17.008,33.361 C7.306,33.527 -0.061,25.789 0.008,16.519 C0.075,7.408 7.440,0.006 16.537,0.011 C25.681,0.016 32.973,7.464 32.964,16.796 C32.955,25.812 25.820,33.209 17.008,33.361 ZM16.555,1.219 C8.206,1.173 1.262,8.120 1.208,16.574 C1.282,24.994 7.605,32.222 16.462,32.179 C25.115,32.137 31.611,25.332 31.764,16.891 C31.919,8.302 25.018,1.266 16.555,1.219 ZM21.205,27.243 C18.967,29.144 16.389,29.309 13.788,28.428 C11.208,27.553 9.902,25.497 9.616,22.774 C9.592,22.546 9.571,22.316 9.532,22.090 C9.339,20.996 9.672,20.594 10.790,20.578 C10.948,20.576 11.106,20.578 11.167,20.578 C10.890,19.373 10.519,18.214 10.381,17.026 C10.224,15.672 10.538,15.432 11.746,15.450 C11.539,14.208 11.222,12.950 11.146,11.678 C11.052,10.105 11.612,9.771 13.128,10.289 C13.402,10.383 13.671,10.492 14.064,10.640 C13.481,8.481 14.153,6.732 15.545,5.201 C16.343,4.323 16.805,4.333 17.593,5.251 C18.907,6.781 19.496,8.503 18.893,10.586 C19.547,10.403 20.109,10.198 20.689,10.096 C21.403,9.972 21.881,10.348 21.828,11.070 C21.722,12.512 21.509,13.946 21.337,15.411 C21.554,15.499 22.262,15.567 22.437,15.912 C22.689,16.407 22.607,17.109 22.564,17.715 C22.530,18.198 22.365,18.677 22.216,19.144 C22.068,19.606 21.867,20.052 21.659,20.582 C22.038,20.582 22.446,20.456 22.651,20.609 C23.017,20.883 23.531,21.340 23.512,21.694 C23.398,23.800 22.911,25.794 21.205,27.243 ZM17.316,23.152 C16.735,23.152 16.287,23.152 15.664,23.152 C15.978,23.673 16.218,24.071 16.507,24.551 C16.800,24.044 17.035,23.637 17.316,23.152 ZM10.805,21.972 C10.525,25.004 13.429,27.902 15.729,27.442 C15.995,24.247 13.362,21.771 10.805,21.972 ZM11.646,16.944 C11.852,19.859 13.492,21.781 15.735,21.735 C16.164,19.826 14.219,16.662 11.646,16.944 ZM12.404,11.534 C11.900,14.028 14.130,16.469 15.734,16.440 C16.100,13.929 14.574,11.682 12.404,11.534 ZM16.484,6.132 C14.630,7.919 14.622,10.477 16.465,11.900 C18.496,10.286 18.222,7.242 16.484,6.132 ZM20.602,11.497 C18.314,11.852 16.953,13.871 17.227,16.427 C19.268,16.301 20.874,13.993 20.602,11.497 ZM17.269,21.757 C19.022,21.884 21.493,19.833 21.334,16.850 C19.037,16.850 16.871,19.362 17.269,21.757 ZM22.150,21.983 C19.419,21.893 17.082,24.622 17.193,27.425 C19.735,27.898 22.517,24.798 22.150,21.983 Z" class="cls-1"/>
</svg>
