<svg xmlns="http://www.w3.org/2000/svg" xmlns:xlink="http://www.w3.org/1999/xlink" preserveAspectRatio="xMidYMid" width="33.031" height="33.469" viewBox="0 0 33.031 33.469">
  <defs>
    <style>
      .cls-1 {
        fill: #333;
        fill-rule: evenodd;
      }
    </style>
  </defs>
  <path d="M16.598,33.465 C7.506,33.522 -0.037,25.949 0.009,16.752 C0.056,7.417 7.312,0.020 16.527,0.011 C25.651,0.002 33.125,7.523 33.029,16.785 C32.931,26.217 25.641,33.409 16.598,33.465 ZM16.587,1.220 C8.296,1.161 1.364,8.117 1.193,16.392 C1.018,24.823 7.984,32.368 16.509,32.196 C24.880,32.231 31.721,25.362 31.782,16.860 C31.843,8.272 25.051,1.280 16.587,1.220 ZM23.897,26.793 C23.415,26.582 22.803,26.446 22.303,26.547 C19.614,27.088 17.109,25.753 16.137,23.102 C15.878,22.394 15.540,21.973 14.794,21.728 C13.194,21.202 12.059,20.104 11.574,18.433 C11.369,17.727 10.957,17.385 10.284,17.133 C7.513,16.095 6.275,13.675 6.874,10.761 C6.967,10.311 6.860,9.717 6.628,9.321 C6.109,8.437 6.321,7.761 6.969,7.113 C7.595,6.486 8.235,6.165 9.136,6.685 C9.556,6.928 10.180,7.049 10.643,6.936 C13.532,6.231 16.217,8.093 16.941,10.445 C17.094,10.942 17.657,11.472 18.153,11.667 C19.777,12.305 20.923,13.382 21.453,15.040 C21.684,15.761 22.061,16.090 22.745,16.323 C24.967,17.079 26.259,18.977 26.311,21.352 C26.238,21.804 26.098,22.257 26.109,22.707 C26.120,23.198 26.171,23.735 26.382,24.162 C26.768,24.943 26.748,25.586 26.141,26.223 C25.377,27.025 24.708,27.147 23.897,26.793 ZM25.134,25.099 C25.054,24.261 24.761,23.375 24.934,22.596 C25.469,20.201 24.400,18.130 22.090,17.435 C21.224,17.175 20.620,16.641 20.381,15.724 C19.993,14.228 19.025,13.286 17.593,12.836 C16.642,12.537 16.079,11.927 15.768,10.970 C15.054,8.767 13.186,7.649 10.977,8.152 C10.105,8.351 9.336,8.409 8.565,7.878 C8.426,7.783 8.056,7.856 7.917,7.987 C7.774,8.122 7.658,8.515 7.745,8.635 C8.350,9.469 8.257,10.324 8.045,11.267 C7.578,13.344 8.672,15.265 10.676,15.920 C11.760,16.275 12.418,16.916 12.733,18.050 C13.080,19.297 13.949,20.195 15.170,20.544 C16.296,20.867 16.917,21.518 17.283,22.616 C17.979,24.700 19.891,25.792 21.984,25.308 C22.992,25.076 23.907,25.057 24.761,25.834 C25.042,25.605 25.289,25.404 25.535,25.203 C25.401,25.168 25.267,25.133 25.134,25.099 ZM21.016,24.181 C19.419,24.178 18.225,22.948 18.224,21.303 C18.223,19.636 19.392,18.450 21.032,18.454 C22.612,18.458 23.893,19.743 23.888,21.317 C23.882,22.872 22.567,24.183 21.016,24.181 ZM21.072,19.636 C20.284,19.606 19.426,20.425 19.394,21.239 C19.362,22.059 20.136,22.914 20.951,22.960 C21.794,23.008 22.565,22.258 22.592,21.364 C22.619,20.466 21.918,19.669 21.072,19.636 ZM16.509,19.607 C14.918,19.612 13.684,18.340 13.694,16.705 C13.704,15.062 14.912,13.864 16.547,13.875 C18.148,13.885 19.380,15.171 19.343,16.791 C19.308,18.340 18.038,19.602 16.509,19.607 ZM16.460,15.077 C15.632,15.104 14.880,15.921 14.899,16.770 C14.917,17.608 15.735,18.411 16.544,18.385 C17.351,18.359 18.109,17.523 18.089,16.680 C18.069,15.795 17.311,15.049 16.460,15.077 ZM12.029,15.067 C10.429,15.060 9.217,13.802 9.228,12.160 C9.239,10.625 10.511,9.338 12.023,9.333 C13.593,9.327 14.879,10.615 14.893,12.207 C14.908,13.790 13.621,15.075 12.029,15.067 ZM12.059,10.569 C11.250,10.551 10.435,11.370 10.427,12.209 C10.419,13.065 11.192,13.861 12.037,13.867 C12.887,13.873 13.648,13.107 13.662,12.231 C13.676,11.374 12.917,10.588 12.059,10.569 Z" class="cls-1"/>
</svg>
