<svg xmlns="http://www.w3.org/2000/svg" xmlns:xlink="http://www.w3.org/1999/xlink" preserveAspectRatio="xMidYMid" width="29.78" height="29.75" viewBox="0 0 29.78 29.75">
  <defs>
    <style>
      .cls-1 {
        fill: #fff;
        filter: url(#color-overlay-1);
        fill-rule: evenodd;
      }
    </style>

    <filter id="color-overlay-1" filterUnits="userSpaceOnUse">
      <feFlood flood-color="#333"/>
      <feComposite operator="in" in2="SourceGraphic"/>
      <feBlend in2="SourceGraphic" result="solidFill"/>
    </filter>
  </defs>
  <path d="M14.889,29.765 C6.665,29.765 -0.002,23.103 -0.002,14.885 C-0.002,6.667 6.665,0.005 14.889,0.005 C23.114,0.005 29.781,6.667 29.781,14.885 C29.781,23.103 23.114,29.765 14.889,29.765 ZM14.889,1.865 C7.693,1.865 1.860,7.694 1.860,14.885 C1.860,22.076 7.693,27.905 14.889,27.905 C22.085,27.905 27.919,22.076 27.919,14.885 C27.919,7.694 22.085,1.865 14.889,1.865 ZM16.143,14.886 L19.276,18.017 C19.622,18.363 19.622,18.923 19.276,19.269 C18.929,19.615 18.368,19.615 18.022,19.269 L14.889,16.139 L11.757,19.269 C11.411,19.615 10.849,19.615 10.503,19.269 C10.157,18.923 10.157,18.363 10.503,18.017 L13.636,14.886 L10.502,11.754 C10.156,11.409 10.156,10.848 10.502,10.502 C10.848,10.156 11.409,10.156 11.755,10.502 L14.889,13.634 L18.024,10.502 C18.369,10.156 18.931,10.156 19.277,10.502 C19.623,10.848 19.623,11.409 19.277,11.754 L16.143,14.886 Z" class="cls-1"/>
</svg>
