<svg xmlns="http://www.w3.org/2000/svg" xmlns:xlink="http://www.w3.org/1999/xlink" preserveAspectRatio="xMidYMid" width="20" height="11" viewBox="0 0 20 11">
  <defs>
    <style>
      .cls-1 {
        fill: #000;
        filter: url(#color-overlay-1);
        fill-rule: evenodd;
      }
    </style>

    <filter id="color-overlay-1" filterUnits="userSpaceOnUse">
      <feFlood flood-color="#ff4200"/>
      <feComposite operator="in" in2="SourceGraphic"/>
      <feBlend in2="SourceGraphic" result="solidFill"/>
    </filter>
  </defs>
  <path d="M19.805,1.129 L18.803,0.183 C18.669,0.057 18.515,-0.006 18.341,-0.006 C18.168,-0.006 18.014,0.057 17.880,0.183 L10.000,7.618 L2.120,0.183 C1.986,0.057 1.832,-0.006 1.659,-0.006 C1.485,-0.006 1.331,0.057 1.198,0.183 L0.195,1.129 C0.061,1.255 -0.005,1.400 -0.005,1.564 C-0.005,1.728 0.061,1.873 0.195,1.999 L9.539,10.815 C9.672,10.941 9.826,11.004 10.000,11.004 C10.174,11.004 10.328,10.941 10.461,10.815 L19.805,1.999 C19.939,1.873 20.006,1.728 20.006,1.564 C20.006,1.400 19.939,1.255 19.805,1.129 L19.805,1.129 Z" class="cls-1"/>
</svg>
