<svg xmlns="http://www.w3.org/2000/svg" xmlns:xlink="http://www.w3.org/1999/xlink" preserveAspectRatio="xMidYMid" width="59.437" height="60.16" viewBox="0 0 59.437 60.16">
  <defs>
    <style>
      .cls-1 {
        fill: #49743f;
        fill-rule: evenodd;
      }
    </style>
  </defs>
  <path d="M29.488,60.149 C13.278,60.214 0.007,46.588 0.014,30.050 C0.021,13.277 13.203,-0.016 29.820,-0.009 C46.201,-0.002 59.548,13.473 59.423,30.117 C59.298,46.770 46.129,60.082 29.488,60.149 ZM29.719,2.165 C14.573,2.148 2.108,14.763 2.137,30.080 C2.166,45.410 14.493,57.845 29.638,57.823 C44.820,58.075 57.272,45.414 57.275,29.949 C57.279,14.779 44.797,2.183 29.719,2.165 ZM34.519,42.912 C31.915,40.373 32.095,35.633 35.002,32.892 C37.487,30.550 40.662,29.600 43.883,28.975 C45.768,28.609 46.901,30.252 46.789,33.966 C46.670,36.045 46.127,39.207 44.002,41.757 C41.386,44.896 37.019,45.349 34.519,42.912 ZM44.400,31.264 C41.212,31.664 38.261,32.660 35.996,35.190 C35.545,35.694 35.253,36.400 35.049,37.064 C34.141,40.026 35.958,42.289 38.986,42.073 C40.946,41.934 42.425,40.875 43.059,39.160 C43.943,36.769 44.407,34.220 45.051,31.738 C44.834,31.580 44.617,31.422 44.400,31.264 ZM27.342,31.218 C24.322,29.867 22.512,25.706 23.798,22.148 C24.668,19.745 26.044,17.499 27.404,15.318 C28.294,13.891 30.550,13.672 31.558,14.847 C33.966,17.655 35.748,20.803 35.965,23.920 C35.939,29.564 31.393,33.031 27.342,31.218 ZM29.501,16.268 C27.505,18.891 25.569,21.512 25.686,25.061 C25.755,27.186 27.481,29.229 29.309,29.493 C30.981,29.736 32.806,28.281 33.486,26.162 C34.366,23.424 32.446,18.529 29.501,16.268 ZM26.147,40.984 C25.307,43.079 23.571,44.201 21.346,44.249 C18.230,44.315 15.682,43.067 14.411,40.095 C13.476,37.909 12.954,35.542 12.248,33.256 C12.318,29.404 13.802,28.038 17.291,29.304 C19.821,30.222 22.407,31.390 24.490,33.059 C26.942,35.024 27.335,38.021 26.147,40.984 ZM23.135,34.849 C21.038,32.431 18.131,31.583 14.687,31.060 C14.953,34.793 15.032,38.240 17.710,40.824 C19.017,42.086 20.741,42.482 22.427,41.764 C23.880,41.146 24.728,39.798 24.478,38.189 C24.296,37.021 23.882,35.709 23.135,34.849 Z" class="cls-1"/>
</svg>
