<svg xmlns="http://www.w3.org/2000/svg" xmlns:xlink="http://www.w3.org/1999/xlink" preserveAspectRatio="xMidYMid" width="59.406" height="59.93" viewBox="0 0 59.406 59.93">
  <defs>
    <style>
      .cls-1 {
        fill: #aba000;
        fill-rule: evenodd;
      }
    </style>
  </defs>
  <path d="M30.640,59.920 C13.153,60.219 -0.125,46.315 -0.002,29.658 C0.120,13.288 13.394,-0.013 29.791,-0.004 C46.272,0.004 59.416,13.388 59.399,30.155 C59.383,46.356 46.523,59.648 30.640,59.920 ZM29.824,2.166 C14.775,2.083 2.259,14.567 2.162,29.758 C2.296,44.886 13.692,57.874 29.657,57.797 C45.253,57.721 56.960,45.493 57.236,30.326 C57.516,14.894 45.077,2.249 29.824,2.166 ZM38.205,48.927 C34.170,52.343 29.524,52.640 24.836,51.056 C20.186,49.485 17.833,45.791 17.316,40.897 C17.273,40.487 17.236,40.074 17.165,39.668 C16.818,37.703 17.417,36.981 19.434,36.952 C19.718,36.948 20.002,36.951 20.111,36.951 C19.614,34.786 18.944,32.702 18.696,30.569 C18.413,28.135 18.979,27.704 21.155,27.737 C20.783,25.505 20.211,23.245 20.074,20.960 C19.905,18.133 20.914,17.532 23.646,18.464 C24.140,18.632 24.625,18.828 25.334,19.094 C24.283,15.215 25.494,12.073 28.003,9.322 C29.442,7.744 30.274,7.762 31.695,9.411 C34.062,12.160 35.125,15.254 34.037,18.997 C35.217,18.669 36.230,18.300 37.275,18.117 C38.561,17.893 39.422,18.569 39.327,19.866 C39.136,22.458 38.753,25.035 38.443,27.667 C38.834,27.826 40.109,27.947 40.425,28.567 C40.879,29.457 40.731,30.718 40.654,31.808 C40.593,32.675 40.295,33.535 40.026,34.374 C39.760,35.205 39.398,36.005 39.022,36.958 C39.706,36.958 40.441,36.733 40.811,37.008 C41.471,37.499 42.397,38.320 42.363,38.956 C42.158,42.741 41.280,46.324 38.205,48.927 ZM31.195,41.576 C30.148,41.576 29.341,41.576 28.218,41.576 C28.784,42.512 29.216,43.227 29.737,44.089 C30.265,43.179 30.689,42.448 31.195,41.576 ZM19.460,39.455 C18.954,44.904 24.189,50.111 28.335,49.285 C28.814,43.543 24.069,39.095 19.460,39.455 ZM20.976,30.422 C21.346,35.659 24.303,39.113 28.346,39.029 C29.119,35.600 25.613,29.915 20.976,30.422 ZM22.342,20.702 C21.433,25.182 25.453,29.569 28.344,29.515 C29.003,25.005 26.253,20.966 22.342,20.702 ZM29.695,10.993 C26.354,14.204 26.340,18.800 29.662,21.359 C33.323,18.458 32.828,12.988 29.695,10.993 ZM37.117,20.633 C32.993,21.272 30.542,24.901 31.034,29.492 C34.713,29.266 37.607,25.118 37.117,20.633 ZM31.110,39.069 C34.270,39.298 38.723,35.612 38.437,30.253 C34.298,30.252 30.392,34.765 31.110,39.069 ZM39.907,39.477 C34.985,39.314 30.774,44.217 30.974,49.254 C35.556,50.103 40.569,44.533 39.907,39.477 Z" class="cls-1"/>
</svg>
