<svg xmlns="http://www.w3.org/2000/svg" xmlns:xlink="http://www.w3.org/1999/xlink" preserveAspectRatio="xMidYMid" width="59.5" height="60.06" viewBox="0 0 59.5 60.06">
  <defs>
    <style>
      .cls-1 {
        fill: #939393;
        fill-rule: evenodd;
      }
    </style>
  </defs>
  <path d="M29.819,60.062 C13.645,60.370 -0.199,46.549 0.002,29.865 C0.201,13.380 13.356,-0.094 29.684,0.007 C46.469,0.111 59.433,13.240 59.503,30.241 C59.572,46.963 45.729,60.254 29.819,60.062 ZM29.826,2.242 C14.616,2.376 2.201,14.624 2.168,29.862 C2.134,45.271 14.466,57.871 29.623,57.911 C44.805,57.951 57.211,45.425 57.391,30.127 C57.565,15.400 44.950,2.108 29.826,2.242 ZM42.595,42.802 C41.888,48.059 38.562,51.683 33.553,52.748 C24.883,54.593 17.082,48.910 16.653,39.880 C16.409,34.738 16.607,29.575 16.606,24.421 C16.606,21.696 16.607,21.698 19.275,21.623 C19.614,21.614 19.952,21.566 20.482,21.520 C20.482,19.863 20.474,18.280 20.484,16.698 C20.516,11.380 24.438,7.499 29.789,7.480 C35.128,7.462 39.120,11.335 39.158,16.608 C39.183,20.210 39.162,23.812 39.162,27.531 C42.971,27.743 43.010,27.743 42.960,31.479 C42.910,35.258 43.095,39.079 42.595,42.802 ZM18.776,27.448 C18.776,27.745 18.771,28.041 18.777,28.337 C18.861,32.656 18.623,37.012 19.110,41.284 C19.789,47.233 25.542,51.480 31.316,50.604 C31.316,45.232 31.547,39.954 31.251,34.707 C30.957,29.501 27.582,25.554 23.061,24.296 C19.038,23.177 18.774,23.371 18.776,27.448 ZM31.952,10.000 C27.424,8.838 23.043,11.567 22.667,16.082 C22.510,17.960 22.641,19.863 22.641,21.770 C23.006,21.914 23.269,22.026 23.539,22.121 C30.285,24.515 33.466,29.057 33.468,36.306 C33.469,39.497 33.468,42.689 33.468,46.188 C35.900,44.684 36.973,42.731 36.987,40.274 C37.033,32.391 37.028,24.507 36.994,16.624 C36.982,13.867 35.294,10.857 31.952,10.000 ZM39.935,29.616 C39.675,30.097 39.203,30.572 39.191,31.059 C39.118,34.014 39.121,36.972 39.156,39.928 C39.199,43.635 37.620,46.359 34.501,48.282 C33.942,48.627 33.646,49.405 33.228,49.982 C33.392,50.105 33.555,50.228 33.718,50.351 C36.986,49.267 39.554,47.063 40.071,43.697 C40.763,39.195 40.623,34.563 40.840,29.987 C40.539,29.863 40.237,29.739 39.935,29.616 ZM31.235,14.922 C31.796,14.546 32.348,13.893 32.919,13.875 C33.441,13.858 33.984,14.531 34.518,14.900 C34.011,15.325 33.505,15.749 32.754,16.379 C32.100,15.751 31.667,15.337 31.235,14.922 ZM34.515,19.551 C34.103,19.966 33.691,20.381 33.095,20.981 C32.269,20.370 31.730,19.972 31.192,19.574 C31.816,19.188 32.414,18.572 33.072,18.497 C33.508,18.447 34.031,19.173 34.515,19.551 ZM34.516,24.099 C34.013,24.467 33.496,25.147 33.011,25.124 C32.411,25.095 31.840,24.482 31.256,24.121 C31.759,23.670 32.263,23.219 33.028,22.533 C33.675,23.214 34.096,23.656 34.516,24.099 ZM25.137,20.569 C25.775,20.213 26.397,19.628 27.057,19.580 C27.522,19.546 28.039,20.240 28.534,20.609 C28.037,21.085 27.541,21.562 26.770,22.302 C26.025,21.511 25.581,21.040 25.137,20.569 ZM25.122,16.004 C25.611,15.543 26.100,15.081 26.827,14.394 C27.552,15.059 28.040,15.506 28.528,15.953 C28.004,16.374 27.464,17.150 26.961,17.126 C26.332,17.097 25.734,16.408 25.122,16.004 Z" class="cls-1"/>
</svg>
