<svg xmlns="http://www.w3.org/2000/svg" xmlns:xlink="http://www.w3.org/1999/xlink" preserveAspectRatio="xMidYMid" width="16" height="9" viewBox="0 0 16 9">
  <defs>
    <style>
      .cls-1 {
        fill: #000;
        filter: url(#color-overlay-1);
        fill-rule: evenodd;
      }
    </style>

    <filter id="color-overlay-1" filterUnits="userSpaceOnUse">
      <feFlood flood-color="#fff"/>
      <feComposite operator="in" in2="SourceGraphic"/>
      <feBlend in2="SourceGraphic" result="solidFill"/>
    </filter>
  </defs>
  <path d="M15.844,0.924 L15.042,0.150 C14.935,0.047 14.812,-0.005 14.673,-0.005 C14.534,-0.005 14.411,0.047 14.304,0.150 L8.000,6.233 L1.696,0.150 C1.589,0.047 1.466,-0.005 1.327,-0.005 C1.188,-0.005 1.065,0.047 0.958,0.150 L0.156,0.924 C0.049,1.027 -0.004,1.146 -0.004,1.280 C-0.004,1.414 0.049,1.533 0.156,1.636 L7.631,8.849 C7.738,8.952 7.861,9.004 8.000,9.004 C8.139,9.004 8.262,8.952 8.369,8.849 L15.844,1.636 C15.951,1.533 16.005,1.414 16.005,1.280 C16.005,1.146 15.951,1.027 15.844,0.924 L15.844,0.924 Z" class="cls-1"/>
</svg>
